<svg width="30" height="30" viewBox="0 0 30 30" fill="none" xmlns="http://www.w3.org/2000/svg">
<path fill-rule="evenodd" clip-rule="evenodd" d="M21.875 3.75C21.3777 3.75 20.9008 3.94754 20.5492 4.29917C20.1975 4.65081 20 5.12772 20 5.625V24.375C20 24.8723 20.1975 25.3492 20.5492 25.7008C20.9008 26.0525 21.3777 26.25 21.875 26.25H24.375C24.8723 26.25 25.3492 26.0525 25.7008 25.7008C26.0525 25.3492 26.25 24.8723 26.25 24.375V5.625C26.25 5.12772 26.0525 4.65081 25.7008 4.29917C25.3492 3.94754 24.8723 3.75 24.375 3.75H21.875ZM21.25 5.625C21.25 5.45924 21.3158 5.30027 21.4331 5.18306C21.5503 5.06585 21.7092 5 21.875 5H24.375C24.5408 5 24.6997 5.06585 24.8169 5.18306C24.9342 5.30027 25 5.45924 25 5.625V24.375C25 24.5408 24.9342 24.6997 24.8169 24.8169C24.6997 24.9342 24.5408 25 24.375 25H21.875C21.7092 25 21.5503 24.9342 21.4331 24.8169C21.3158 24.6997 21.25 24.5408 21.25 24.375V5.625ZM11.875 13.125C11.875 12.6277 12.0725 12.1508 12.4242 11.7992C12.7758 11.4475 13.2527 11.25 13.75 11.25H16.25C16.7473 11.25 17.2242 11.4475 17.5758 11.7992C17.9275 12.1508 18.125 12.6277 18.125 13.125V24.375C18.125 24.8723 17.9275 25.3492 17.5758 25.7008C17.2242 26.0525 16.7473 26.25 16.25 26.25H13.75C13.2527 26.25 12.7758 26.0525 12.4242 25.7008C12.0725 25.3492 11.875 24.8723 11.875 24.375V13.125ZM13.75 12.5C13.5842 12.5 13.4253 12.5658 13.3081 12.6831C13.1908 12.8003 13.125 12.9592 13.125 13.125V24.375C13.125 24.5408 13.1908 24.6997 13.3081 24.8169C13.4253 24.9342 13.5842 25 13.75 25H16.25C16.4158 25 16.5747 24.9342 16.6919 24.8169C16.8092 24.6997 16.875 24.5408 16.875 24.375V13.125C16.875 12.9592 16.8092 12.8003 16.6919 12.6831C16.5747 12.5658 16.4158 12.5 16.25 12.5H13.75Z" fill="#006CB5"/>
<path d="M3.75 20.625C3.75 20.1277 3.94754 19.6508 4.29917 19.2992C4.65081 18.9475 5.12772 18.75 5.625 18.75H8.125C8.62228 18.75 9.09919 18.9475 9.45083 19.2992C9.80246 19.6508 10 20.1277 10 20.625V24.375C10 24.8723 9.80246 25.3492 9.45083 25.7008C9.09919 26.0525 8.62228 26.25 8.125 26.25H5.625C5.12772 26.25 4.65081 26.0525 4.29917 25.7008C3.94754 25.3492 3.75 24.8723 3.75 24.375V20.625Z" fill="#006CB5"/>
</svg>
