<svg width="30" height="30" viewBox="0 0 30 30" fill="none" xmlns="http://www.w3.org/2000/svg">
<path d="M6.25 25C6.94036 25 7.5 24.4404 7.5 23.75C7.5 23.0596 6.94036 22.5 6.25 22.5C5.55964 22.5 5 23.0596 5 23.75C5 24.4404 5.55964 25 6.25 25Z" fill="#006CB5"/>
<path d="M5 5H7.5V16.25H5V5Z" fill="#006CB5"/>
<path d="M8.75 2.5H3.75C3.41848 2.5 3.10054 2.6317 2.86612 2.86612C2.6317 3.10054 2.5 3.41848 2.5 3.75V26.25C2.5 26.5815 2.6317 26.8995 2.86612 27.1339C3.10054 27.3683 3.41848 27.5 3.75 27.5H8.75C9.08152 27.5 9.39946 27.3683 9.63388 27.1339C9.8683 26.8995 10 26.5815 10 26.25V3.75C10 3.41848 9.8683 3.10054 9.63388 2.86612C9.39946 2.6317 9.08152 2.5 8.75 2.5ZM8.75 26.25H3.75V3.75H8.75V26.25Z" fill="#006CB5"/>
<path d="M15 25C15.6904 25 16.25 24.4404 16.25 23.75C16.25 23.0596 15.6904 22.5 15 22.5C14.3096 22.5 13.75 23.0596 13.75 23.75C13.75 24.4404 14.3096 25 15 25Z" fill="#006CB5"/>
<path d="M13.75 5H16.25V16.25H13.75V5Z" fill="#006CB5"/>
<path d="M17.5 2.5H12.5C12.1685 2.5 11.8505 2.6317 11.6161 2.86612C11.3817 3.10054 11.25 3.41848 11.25 3.75V26.25C11.25 26.5815 11.3817 26.8995 11.6161 27.1339C11.8505 27.3683 12.1685 27.5 12.5 27.5H17.5C17.8315 27.5 18.1495 27.3683 18.3839 27.1339C18.6183 26.8995 18.75 26.5815 18.75 26.25V3.75C18.75 3.41848 18.6183 3.10054 18.3839 2.86612C18.1495 2.6317 17.8315 2.5 17.5 2.5ZM17.5 26.25H12.5V3.75H17.5V26.25Z" fill="#006CB5"/>
<path d="M23.75 25C24.4404 25 25 24.4404 25 23.75C25 23.0596 24.4404 22.5 23.75 22.5C23.0596 22.5 22.5 23.0596 22.5 23.75C22.5 24.4404 23.0596 25 23.75 25Z" fill="#006CB5"/>
<path d="M22.5 5H25V16.25H22.5V5Z" fill="#006CB5"/>
<path d="M26.25 2.5H21.25C20.9185 2.5 20.6005 2.6317 20.3661 2.86612C20.1317 3.10054 20 3.41848 20 3.75V26.25C20 26.5815 20.1317 26.8995 20.3661 27.1339C20.6005 27.3683 20.9185 27.5 21.25 27.5H26.25C26.5815 27.5 26.8995 27.3683 27.1339 27.1339C27.3683 26.8995 27.5 26.5815 27.5 26.25V3.75C27.5 3.41848 27.3683 3.10054 27.1339 2.86612C26.8995 2.6317 26.5815 2.5 26.25 2.5ZM26.25 26.25H21.25V3.75H26.25V26.25Z" fill="#006CB5"/>
</svg>
