<svg width="30" height="30" viewBox="0 0 30 30" fill="none" xmlns="http://www.w3.org/2000/svg">
<path d="M15 17.5C16.3807 17.5 17.5 16.3807 17.5 15C17.5 13.6193 16.3807 12.5 15 12.5C13.6193 12.5 12.5 13.6193 12.5 15C12.5 16.3807 13.6193 17.5 15 17.5Z" stroke="#006CB5" stroke-width="1.5"/>
<path d="M6.74874 7.35L7.21749 6.5375C7.03345 6.43133 6.8188 6.39083 6.60873 6.42262C6.39866 6.45442 6.20561 6.55663 6.06124 6.7125L6.74874 7.35ZM4.24999 11.68L3.35374 11.4025C3.29104 11.6056 3.2992 11.8239 3.37687 12.0217C3.45454 12.2195 3.59712 12.3851 3.78124 12.4913L4.24999 11.68ZM4.24749 18.3188L3.77874 17.5063C3.59459 17.6126 3.45208 17.7785 3.37463 17.9766C3.29717 18.1746 3.28936 18.3932 3.35249 18.5963L4.24749 18.3188ZM6.74749 22.6488L6.05999 23.2862C6.20436 23.4421 6.39741 23.5443 6.60748 23.5761C6.81755 23.6079 7.0322 23.5674 7.21624 23.4612L6.74749 22.6488ZM12.4975 25.9675H11.56C11.56 26.405 11.8637 26.7837 12.29 26.8812L12.4975 25.9675ZM17.4987 25.97L17.7075 26.885C17.9147 26.8377 18.0997 26.7213 18.2321 26.5551C18.3645 26.3888 18.4365 26.1825 18.4362 25.97H17.4987ZM23.25 22.65L22.7812 23.4625C22.9653 23.5687 23.1799 23.6092 23.39 23.5774C23.6001 23.5456 23.7931 23.4434 23.9375 23.2875L23.25 22.65ZM25.7475 18.3175L26.6437 18.595C26.7064 18.3919 26.6983 18.1736 26.6206 17.9758C26.5429 17.778 26.4003 17.6124 26.2162 17.5063L25.7475 18.3175ZM25.75 11.6788L26.2187 12.4913C26.4029 12.3849 26.5454 12.219 26.6228 12.0209C26.7003 11.8229 26.7081 11.6043 26.645 11.4013L25.75 11.6788ZM23.25 7.3475L23.9375 6.71125C23.7931 6.55538 23.6001 6.45317 23.39 6.42137C23.1799 6.38958 22.9653 6.43008 22.7812 6.53625L23.25 7.3475ZM17.5 4.03125H18.4375C18.4374 3.81893 18.3653 3.61291 18.2329 3.44691C18.1005 3.28092 17.9157 3.16478 17.7087 3.1175L17.5 4.03125ZM12.5 4.02875L12.2912 3.11375C12.084 3.16108 11.8991 3.2774 11.7667 3.44365C11.6342 3.6099 11.5623 3.81621 11.5625 4.02875H12.5ZM5.14624 11.9575C5.60119 10.4786 6.38347 9.12129 7.43499 7.98625L6.05999 6.71125C4.81742 8.05247 3.89287 9.65632 3.35499 11.4038L5.14624 11.9575ZM6.06874 20.1562C5.68266 19.4887 5.3724 18.7802 5.14374 18.0438L3.35374 18.5975C3.62334 19.4676 3.98937 20.3049 4.44499 21.0938L6.06874 20.1562ZM7.43624 22.0138C6.91262 21.4475 6.45394 20.8244 6.06874 20.1562L4.44499 21.0938C4.89991 21.8829 5.44161 22.6174 6.05999 23.2862L7.43624 22.0138ZM17.2912 25.0575C15.7829 25.4008 14.2167 25.3999 12.7087 25.055L12.2912 26.8825C14.0739 27.2906 15.9255 27.2918 17.7087 26.8862L17.2912 25.0575ZM24.8537 18.0425C24.3987 19.5213 23.6165 20.8787 22.565 22.0138L23.94 23.2887C25.1826 21.9475 26.1071 20.3437 26.645 18.5963L24.8537 18.0425ZM23.9312 9.84375C24.325 10.5275 24.6312 11.235 24.8562 11.9562L26.6462 11.4025C26.3766 10.5324 26.0106 9.69507 25.555 8.90625L23.9312 9.84375ZM22.5625 7.98625C23.075 8.54 23.535 9.16125 23.93 9.84375L25.555 8.90625C25.0997 8.11704 24.5563 7.37997 23.9375 6.71125L22.5625 7.98625ZM12.7075 4.9425C14.2158 4.59922 15.7821 4.60007 17.29 4.945L17.7087 3.1175C15.9261 2.7094 14.0732 2.70812 12.29 3.11375L12.7075 4.9425ZM13.4362 6.34V4.0275H11.5612V6.34H13.4362ZM9.21874 7.6925L7.21749 6.5375L6.27999 8.16125L8.27999 9.31625L9.21874 7.6925ZM5.78124 16.3538L3.77999 17.5088L4.71749 19.1325L6.71874 17.9775L5.78124 16.3538ZM6.71874 12.0225L4.71874 10.8687L3.78124 12.4937L5.78124 13.6475L6.71874 12.0225ZM13.4375 25.9688V23.66H11.5625V25.9688H13.4375ZM8.28124 20.6838L6.27999 21.8388L7.21749 23.4637L9.21749 22.3075L8.28124 20.6838ZM23.72 21.8388L21.7187 20.6838L20.7812 22.3075L22.7812 23.4625L23.72 21.8388ZM18.4375 25.9713V23.66H16.5625V25.9725L18.4375 25.9713ZM25.2825 10.8675L23.2812 12.0225L24.2187 13.6475L26.2187 12.4913L25.2825 10.8675ZM26.2175 17.5075L24.2187 16.3525L23.2812 17.9775L25.2812 19.1313L26.2175 17.5075ZM18.4375 6.34V4.03125H16.5625V6.34H18.4375ZM22.7825 6.5375L20.7812 7.6925L21.7187 9.3175L23.72 8.16125L22.7825 6.5375ZM16.5625 6.34C16.5625 8.98625 19.4275 10.6413 21.7187 9.3175L20.7812 7.6925C20.5438 7.82961 20.2744 7.90181 20.0002 7.90184C19.7259 7.90186 19.4565 7.82973 19.219 7.69267C18.9815 7.55561 18.7843 7.35845 18.6471 7.12102C18.5099 6.88358 18.4376 6.61422 18.4375 6.34H16.5625ZM23.2812 12.0225C20.99 13.3463 20.99 16.6538 23.2812 17.9775L24.2187 16.3525C23.9812 16.2154 23.784 16.0181 23.6469 15.7806C23.5097 15.5431 23.4376 15.2736 23.4376 14.9994C23.4376 14.7251 23.5097 14.4557 23.6469 14.2182C23.784 13.9806 23.9812 13.7834 24.2187 13.6463L23.2812 12.0225ZM21.7187 20.6838C19.4275 19.36 16.5625 21.0137 16.5625 23.66H18.4375C18.4376 23.3858 18.5099 23.1164 18.6471 22.879C18.7843 22.6415 18.9815 22.4444 19.219 22.3073C19.4565 22.1703 19.7259 22.0981 20.0002 22.0982C20.2744 22.0982 20.5438 22.1704 20.7812 22.3075L21.7187 20.6838ZM13.4375 23.66C13.4375 21.0137 10.5725 19.36 8.28124 20.6838L9.21749 22.3075C9.45497 22.1704 9.7256 22.0982 9.99982 22.0982C10.274 22.0981 10.5434 22.1703 10.7809 22.3073C11.0185 22.4444 11.2157 22.6415 11.3529 22.879C11.4901 23.1164 11.5624 23.3858 11.5625 23.66H13.4375ZM6.71874 17.9775C9.00999 16.6538 9.00999 13.3463 6.71874 12.0225L5.78124 13.6475C6.01875 13.7846 6.21598 13.9819 6.3531 14.2194C6.49023 14.4569 6.56242 14.7264 6.56242 15.0006C6.56242 15.2749 6.49023 15.5443 6.3531 15.7818C6.21598 16.0194 6.01875 16.2166 5.78124 16.3538L6.71874 17.9775ZM11.5625 6.34C11.5624 6.61422 11.4901 6.88358 11.3529 7.12102C11.2157 7.35845 11.0185 7.55561 10.7809 7.69267C10.5434 7.82973 10.274 7.90186 9.99982 7.90184C9.7256 7.90181 9.45622 7.82961 9.21874 7.6925L8.28124 9.3175C10.5725 10.64 13.4375 8.98625 13.4375 6.34H11.5625Z" fill="#006CB5"/>
</svg>
